<mxfile host="Electron" modified="2024-05-20T12:43:12.610Z" agent="Mozilla/5.0 (Windows NT 10.0; Win64; x64) AppleWebKit/537.36 (KHTML, like Gecko) draw.io/21.6.1 Chrome/112.0.5615.204 Electron/24.6.1 Safari/537.36" etag="spHa_-qsbb4mRV03wcvM" version="21.6.1" type="device">
  <diagram name="PÃ¡gina-1" id="mrNOAzfTAi2IqtJDP0Gq">
    <mxGraphModel dx="1689" dy="985" grid="1" gridSize="10" guides="1" tooltips="1" connect="1" arrows="1" fold="1" page="1" pageScale="1" pageWidth="1169" pageHeight="827" math="0" shadow="0">
      <root>
        <mxCell id="0" />
        <mxCell id="1" parent="0" />
        <mxCell id="8jYT87kQ_CPMX7Xzsf0v-1" value="" style="shape=umlLifeline;perimeter=lifelinePerimeter;whiteSpace=wrap;html=1;container=1;dropTarget=0;collapsible=0;recursiveResize=0;outlineConnect=0;portConstraint=eastwest;newEdgeStyle={&quot;edgeStyle&quot;:&quot;elbowEdgeStyle&quot;,&quot;elbow&quot;:&quot;vertical&quot;,&quot;curved&quot;:0,&quot;rounded&quot;:0};participant=umlActor;" vertex="1" parent="1">
          <mxGeometry x="435" y="210" width="20" height="930" as="geometry" />
        </mxCell>
        <mxCell id="8jYT87kQ_CPMX7Xzsf0v-50" value="" style="html=1;points=[];perimeter=orthogonalPerimeter;outlineConnect=0;targetShapes=umlLifeline;portConstraint=eastwest;newEdgeStyle={&quot;edgeStyle&quot;:&quot;elbowEdgeStyle&quot;,&quot;elbow&quot;:&quot;vertical&quot;,&quot;curved&quot;:0,&quot;rounded&quot;:0};" vertex="1" parent="8jYT87kQ_CPMX7Xzsf0v-1">
          <mxGeometry x="6" y="580.31" width="10" height="40" as="geometry" />
        </mxCell>
        <mxCell id="8jYT87kQ_CPMX7Xzsf0v-41" value="" style="html=1;points=[];perimeter=orthogonalPerimeter;outlineConnect=0;targetShapes=umlLifeline;portConstraint=eastwest;newEdgeStyle={&quot;edgeStyle&quot;:&quot;elbowEdgeStyle&quot;,&quot;elbow&quot;:&quot;vertical&quot;,&quot;curved&quot;:0,&quot;rounded&quot;:0};" vertex="1" parent="8jYT87kQ_CPMX7Xzsf0v-1">
          <mxGeometry x="6" y="450" width="10" height="40" as="geometry" />
        </mxCell>
        <mxCell id="8jYT87kQ_CPMX7Xzsf0v-2" value=":concesionario" style="shape=umlLifeline;perimeter=lifelinePerimeter;whiteSpace=wrap;html=1;container=1;dropTarget=0;collapsible=0;recursiveResize=0;outlineConnect=0;portConstraint=eastwest;newEdgeStyle={&quot;edgeStyle&quot;:&quot;elbowEdgeStyle&quot;,&quot;elbow&quot;:&quot;vertical&quot;,&quot;curved&quot;:0,&quot;rounded&quot;:0};" vertex="1" parent="1">
          <mxGeometry x="585" y="210" width="160" height="930" as="geometry" />
        </mxCell>
        <mxCell id="8jYT87kQ_CPMX7Xzsf0v-34" value="" style="html=1;points=[];perimeter=orthogonalPerimeter;outlineConnect=0;targetShapes=umlLifeline;portConstraint=eastwest;newEdgeStyle={&quot;edgeStyle&quot;:&quot;elbowEdgeStyle&quot;,&quot;elbow&quot;:&quot;vertical&quot;,&quot;curved&quot;:0,&quot;rounded&quot;:0};" vertex="1" parent="8jYT87kQ_CPMX7Xzsf0v-2">
          <mxGeometry x="75" y="190" width="10" height="80" as="geometry" />
        </mxCell>
        <mxCell id="8jYT87kQ_CPMX7Xzsf0v-35" value="elegirVehiculo(nombreVehiculo: string)" style="html=1;verticalAlign=bottom;endArrow=block;edgeStyle=elbowEdgeStyle;elbow=vertical;curved=0;rounded=0;" edge="1" target="8jYT87kQ_CPMX7Xzsf0v-34" parent="8jYT87kQ_CPMX7Xzsf0v-2">
          <mxGeometry relative="1" as="geometry">
            <mxPoint x="-135" y="190" as="sourcePoint" />
          </mxGeometry>
        </mxCell>
        <mxCell id="8jYT87kQ_CPMX7Xzsf0v-36" value="datosVehiculo" style="html=1;verticalAlign=bottom;endArrow=open;dashed=1;endSize=8;edgeStyle=elbowEdgeStyle;elbow=vertical;curved=0;rounded=0;" edge="1" source="8jYT87kQ_CPMX7Xzsf0v-34" parent="8jYT87kQ_CPMX7Xzsf0v-2">
          <mxGeometry relative="1" as="geometry">
            <mxPoint x="-135" y="265" as="targetPoint" />
          </mxGeometry>
        </mxCell>
        <mxCell id="8jYT87kQ_CPMX7Xzsf0v-37" value="" style="html=1;points=[];perimeter=orthogonalPerimeter;outlineConnect=0;targetShapes=umlLifeline;portConstraint=eastwest;newEdgeStyle={&quot;edgeStyle&quot;:&quot;elbowEdgeStyle&quot;,&quot;elbow&quot;:&quot;vertical&quot;,&quot;curved&quot;:0,&quot;rounded&quot;:0};" vertex="1" parent="8jYT87kQ_CPMX7Xzsf0v-2">
          <mxGeometry x="-145" y="190" width="10" height="80" as="geometry" />
        </mxCell>
        <mxCell id="8jYT87kQ_CPMX7Xzsf0v-38" value="" style="html=1;points=[];perimeter=orthogonalPerimeter;outlineConnect=0;targetShapes=umlLifeline;portConstraint=eastwest;newEdgeStyle={&quot;edgeStyle&quot;:&quot;elbowEdgeStyle&quot;,&quot;elbow&quot;:&quot;vertical&quot;,&quot;curved&quot;:0,&quot;rounded&quot;:0};" vertex="1" parent="8jYT87kQ_CPMX7Xzsf0v-2">
          <mxGeometry x="75" y="450" width="10" height="40" as="geometry" />
        </mxCell>
        <mxCell id="8jYT87kQ_CPMX7Xzsf0v-39" value="comprobarDocumentacion(documentacion : Documentacion)" style="html=1;verticalAlign=bottom;endArrow=block;edgeStyle=elbowEdgeStyle;elbow=vertical;curved=0;rounded=0;" edge="1" parent="8jYT87kQ_CPMX7Xzsf0v-2" target="8jYT87kQ_CPMX7Xzsf0v-38">
          <mxGeometry relative="1" as="geometry">
            <mxPoint x="-131.5" y="450" as="sourcePoint" />
          </mxGeometry>
        </mxCell>
        <mxCell id="8jYT87kQ_CPMX7Xzsf0v-44" value="" style="ellipse;whiteSpace=wrap;html=1;align=center;aspect=fixed;fillColor=none;strokeColor=none;resizable=0;perimeter=centerPerimeter;rotatable=0;allowArrows=0;points=[];outlineConnect=1;" vertex="1" parent="8jYT87kQ_CPMX7Xzsf0v-2">
          <mxGeometry x="-131.5" y="400" width="10" height="10" as="geometry" />
        </mxCell>
        <mxCell id="8jYT87kQ_CPMX7Xzsf0v-18" value="" style="html=1;points=[];perimeter=orthogonalPerimeter;outlineConnect=0;targetShapes=umlLifeline;portConstraint=eastwest;newEdgeStyle={&quot;edgeStyle&quot;:&quot;elbowEdgeStyle&quot;,&quot;elbow&quot;:&quot;vertical&quot;,&quot;curved&quot;:0,&quot;rounded&quot;:0};" vertex="1" parent="8jYT87kQ_CPMX7Xzsf0v-2">
          <mxGeometry x="75" y="80" width="10" height="80" as="geometry" />
        </mxCell>
        <mxCell id="8jYT87kQ_CPMX7Xzsf0v-52" value="" style="html=1;points=[];perimeter=orthogonalPerimeter;outlineConnect=0;targetShapes=umlLifeline;portConstraint=eastwest;newEdgeStyle={&quot;edgeStyle&quot;:&quot;elbowEdgeStyle&quot;,&quot;elbow&quot;:&quot;vertical&quot;,&quot;curved&quot;:0,&quot;rounded&quot;:0};" vertex="1" parent="8jYT87kQ_CPMX7Xzsf0v-2">
          <mxGeometry x="75" y="310" width="10" height="40" as="geometry" />
        </mxCell>
        <mxCell id="8jYT87kQ_CPMX7Xzsf0v-53" value="solicitarDocumentacion()" style="html=1;verticalAlign=bottom;endArrow=block;edgeStyle=elbowEdgeStyle;elbow=vertical;curved=0;rounded=0;" edge="1" target="8jYT87kQ_CPMX7Xzsf0v-52" parent="8jYT87kQ_CPMX7Xzsf0v-2">
          <mxGeometry relative="1" as="geometry">
            <mxPoint x="-142.5" y="310" as="sourcePoint" />
          </mxGeometry>
        </mxCell>
        <mxCell id="8jYT87kQ_CPMX7Xzsf0v-54" value="" style="html=1;points=[];perimeter=orthogonalPerimeter;outlineConnect=0;targetShapes=umlLifeline;portConstraint=eastwest;newEdgeStyle={&quot;edgeStyle&quot;:&quot;elbowEdgeStyle&quot;,&quot;elbow&quot;:&quot;vertical&quot;,&quot;curved&quot;:0,&quot;rounded&quot;:0};" vertex="1" parent="8jYT87kQ_CPMX7Xzsf0v-2">
          <mxGeometry x="-145" y="310" width="10" height="40" as="geometry" />
        </mxCell>
        <mxCell id="8jYT87kQ_CPMX7Xzsf0v-55" value="documentacion" style="html=1;verticalAlign=bottom;endArrow=open;dashed=1;endSize=8;edgeStyle=elbowEdgeStyle;elbow=vertical;curved=0;rounded=0;" edge="1" source="8jYT87kQ_CPMX7Xzsf0v-52" target="8jYT87kQ_CPMX7Xzsf0v-54" parent="8jYT87kQ_CPMX7Xzsf0v-2">
          <mxGeometry relative="1" as="geometry">
            <mxPoint x="-137.5" y="340" as="targetPoint" />
            <Array as="points">
              <mxPoint x="-47.5" y="340" />
            </Array>
          </mxGeometry>
        </mxCell>
        <mxCell id="8jYT87kQ_CPMX7Xzsf0v-63" value="" style="html=1;points=[];perimeter=orthogonalPerimeter;outlineConnect=0;targetShapes=umlLifeline;portConstraint=eastwest;newEdgeStyle={&quot;edgeStyle&quot;:&quot;elbowEdgeStyle&quot;,&quot;elbow&quot;:&quot;vertical&quot;,&quot;curved&quot;:0,&quot;rounded&quot;:0};" vertex="1" parent="8jYT87kQ_CPMX7Xzsf0v-2">
          <mxGeometry x="-145" y="830" width="10" height="40" as="geometry" />
        </mxCell>
        <mxCell id="8jYT87kQ_CPMX7Xzsf0v-64" value="" style="html=1;points=[];perimeter=orthogonalPerimeter;outlineConnect=0;targetShapes=umlLifeline;portConstraint=eastwest;newEdgeStyle={&quot;edgeStyle&quot;:&quot;elbowEdgeStyle&quot;,&quot;elbow&quot;:&quot;vertical&quot;,&quot;curved&quot;:0,&quot;rounded&quot;:0};" vertex="1" parent="8jYT87kQ_CPMX7Xzsf0v-2">
          <mxGeometry x="75" y="830" width="10" height="40" as="geometry" />
        </mxCell>
        <mxCell id="8jYT87kQ_CPMX7Xzsf0v-65" value="comprarVehiculo(pagoEfectivo: boolean)" style="html=1;verticalAlign=bottom;endArrow=block;edgeStyle=elbowEdgeStyle;elbow=vertical;curved=0;rounded=0;" edge="1" parent="8jYT87kQ_CPMX7Xzsf0v-2" target="8jYT87kQ_CPMX7Xzsf0v-64">
          <mxGeometry relative="1" as="geometry">
            <mxPoint x="-132.5" y="830" as="sourcePoint" />
          </mxGeometry>
        </mxCell>
        <mxCell id="8jYT87kQ_CPMX7Xzsf0v-66" value="descuento" style="html=1;verticalAlign=bottom;endArrow=open;dashed=1;endSize=8;edgeStyle=elbowEdgeStyle;elbow=horizontal;curved=0;rounded=0;" edge="1" parent="8jYT87kQ_CPMX7Xzsf0v-2" source="8jYT87kQ_CPMX7Xzsf0v-64" target="8jYT87kQ_CPMX7Xzsf0v-63">
          <mxGeometry relative="1" as="geometry">
            <mxPoint x="-127.5" y="860" as="targetPoint" />
            <Array as="points">
              <mxPoint x="-37.5" y="860" />
            </Array>
          </mxGeometry>
        </mxCell>
        <mxCell id="8jYT87kQ_CPMX7Xzsf0v-19" value="solicitarListaVehiculos( )" style="html=1;verticalAlign=bottom;endArrow=block;edgeStyle=elbowEdgeStyle;elbow=vertical;curved=0;rounded=0;" edge="1" parent="1" target="8jYT87kQ_CPMX7Xzsf0v-18">
          <mxGeometry relative="1" as="geometry">
            <mxPoint x="450" y="290" as="sourcePoint" />
          </mxGeometry>
        </mxCell>
        <mxCell id="8jYT87kQ_CPMX7Xzsf0v-20" value="listaVehiculos" style="html=1;verticalAlign=bottom;endArrow=open;dashed=1;endSize=8;edgeStyle=elbowEdgeStyle;elbow=vertical;curved=0;rounded=0;" edge="1" parent="1" source="8jYT87kQ_CPMX7Xzsf0v-18">
          <mxGeometry relative="1" as="geometry">
            <mxPoint x="450" y="365" as="targetPoint" />
          </mxGeometry>
        </mxCell>
        <mxCell id="8jYT87kQ_CPMX7Xzsf0v-21" value="" style="html=1;points=[];perimeter=orthogonalPerimeter;outlineConnect=0;targetShapes=umlLifeline;portConstraint=eastwest;newEdgeStyle={&quot;edgeStyle&quot;:&quot;elbowEdgeStyle&quot;,&quot;elbow&quot;:&quot;vertical&quot;,&quot;curved&quot;:0,&quot;rounded&quot;:0};" vertex="1" parent="1">
          <mxGeometry x="440" y="290" width="10" height="80" as="geometry" />
        </mxCell>
        <mxCell id="8jYT87kQ_CPMX7Xzsf0v-33" value="Cliente" style="text;html=1;align=center;verticalAlign=middle;resizable=0;points=[];autosize=1;strokeColor=none;fillColor=none;" vertex="1" parent="1">
          <mxGeometry x="415" y="240" width="60" height="30" as="geometry" />
        </mxCell>
        <mxCell id="8jYT87kQ_CPMX7Xzsf0v-43" value="[documentacionCorrecta]" style="text;html=1;align=center;verticalAlign=middle;resizable=0;points=[];autosize=1;strokeColor=none;fillColor=none;" vertex="1" parent="1">
          <mxGeometry x="255" y="610" width="160" height="30" as="geometry" />
        </mxCell>
        <mxCell id="8jYT87kQ_CPMX7Xzsf0v-45" value="Opt" style="shape=umlFrame;whiteSpace=wrap;html=1;pointerEvents=0;" vertex="1" parent="1">
          <mxGeometry x="280" y="710" width="560" height="270" as="geometry" />
        </mxCell>
        <mxCell id="8jYT87kQ_CPMX7Xzsf0v-42" value="Opt" style="shape=umlFrame;whiteSpace=wrap;html=1;pointerEvents=0;" vertex="1" parent="1">
          <mxGeometry x="260" y="580" width="610" height="420" as="geometry" />
        </mxCell>
        <mxCell id="8jYT87kQ_CPMX7Xzsf0v-47" value="[estadoVehiculo]" style="text;html=1;align=center;verticalAlign=middle;resizable=0;points=[];autosize=1;strokeColor=none;fillColor=none;" vertex="1" parent="1">
          <mxGeometry x="275" y="740" width="110" height="30" as="geometry" />
        </mxCell>
        <mxCell id="8jYT87kQ_CPMX7Xzsf0v-48" value="" style="html=1;points=[];perimeter=orthogonalPerimeter;outlineConnect=0;targetShapes=umlLifeline;portConstraint=eastwest;newEdgeStyle={&quot;edgeStyle&quot;:&quot;elbowEdgeStyle&quot;,&quot;elbow&quot;:&quot;vertical&quot;,&quot;curved&quot;:0,&quot;rounded&quot;:0};" vertex="1" parent="1">
          <mxGeometry x="660" y="790.31" width="10" height="40" as="geometry" />
        </mxCell>
        <mxCell id="8jYT87kQ_CPMX7Xzsf0v-49" value="comprobarDesperfectos(vehiculo: Vehiculo)" style="html=1;verticalAlign=bottom;endArrow=block;edgeStyle=elbowEdgeStyle;elbow=vertical;curved=0;rounded=0;" edge="1" parent="1" target="8jYT87kQ_CPMX7Xzsf0v-48">
          <mxGeometry relative="1" as="geometry">
            <mxPoint x="453.5" y="790.31" as="sourcePoint" />
          </mxGeometry>
        </mxCell>
        <mxCell id="8jYT87kQ_CPMX7Xzsf0v-51" value="precioCoche" style="html=1;verticalAlign=bottom;endArrow=open;dashed=1;endSize=8;edgeStyle=elbowEdgeStyle;elbow=vertical;curved=0;rounded=0;" edge="1" parent="1" source="8jYT87kQ_CPMX7Xzsf0v-48" target="8jYT87kQ_CPMX7Xzsf0v-50">
          <mxGeometry relative="1" as="geometry">
            <mxPoint x="458.5" y="820.31" as="targetPoint" />
            <Array as="points">
              <mxPoint x="548.5" y="820.31" />
            </Array>
          </mxGeometry>
        </mxCell>
        <mxCell id="8jYT87kQ_CPMX7Xzsf0v-56" value="estadoVehiculo" style="html=1;verticalAlign=bottom;endArrow=open;dashed=1;endSize=8;edgeStyle=elbowEdgeStyle;elbow=vertical;curved=0;rounded=0;" edge="1" parent="1">
          <mxGeometry relative="1" as="geometry">
            <mxPoint x="461" y="699.69" as="targetPoint" />
            <Array as="points">
              <mxPoint x="548.5" y="700" />
            </Array>
            <mxPoint x="671" y="699.69" as="sourcePoint" />
          </mxGeometry>
        </mxCell>
        <mxCell id="8jYT87kQ_CPMX7Xzsf0v-57" value="loop" style="shape=umlFrame;whiteSpace=wrap;html=1;pointerEvents=0;" vertex="1" parent="1">
          <mxGeometry x="300" y="850" width="520" height="110" as="geometry" />
        </mxCell>
        <mxCell id="8jYT87kQ_CPMX7Xzsf0v-58" value="" style="html=1;points=[];perimeter=orthogonalPerimeter;outlineConnect=0;targetShapes=umlLifeline;portConstraint=eastwest;newEdgeStyle={&quot;edgeStyle&quot;:&quot;elbowEdgeStyle&quot;,&quot;elbow&quot;:&quot;vertical&quot;,&quot;curved&quot;:0,&quot;rounded&quot;:0};" vertex="1" parent="1">
          <mxGeometry x="440" y="890" width="10" height="40" as="geometry" />
        </mxCell>
        <mxCell id="8jYT87kQ_CPMX7Xzsf0v-59" value="" style="html=1;points=[];perimeter=orthogonalPerimeter;outlineConnect=0;targetShapes=umlLifeline;portConstraint=eastwest;newEdgeStyle={&quot;edgeStyle&quot;:&quot;elbowEdgeStyle&quot;,&quot;elbow&quot;:&quot;vertical&quot;,&quot;curved&quot;:0,&quot;rounded&quot;:0};" vertex="1" parent="1">
          <mxGeometry x="660" y="890" width="10" height="40" as="geometry" />
        </mxCell>
        <mxCell id="8jYT87kQ_CPMX7Xzsf0v-60" value="evaluarOferta(precio: double)" style="html=1;verticalAlign=bottom;endArrow=block;edgeStyle=elbowEdgeStyle;elbow=vertical;curved=0;rounded=0;" edge="1" target="8jYT87kQ_CPMX7Xzsf0v-59" parent="1">
          <mxGeometry relative="1" as="geometry">
            <mxPoint x="452.5" y="890" as="sourcePoint" />
          </mxGeometry>
        </mxCell>
        <mxCell id="8jYT87kQ_CPMX7Xzsf0v-61" value="precio" style="html=1;verticalAlign=bottom;endArrow=open;dashed=1;endSize=8;edgeStyle=elbowEdgeStyle;elbow=horizontal;curved=0;rounded=0;" edge="1" source="8jYT87kQ_CPMX7Xzsf0v-59" target="8jYT87kQ_CPMX7Xzsf0v-58" parent="1">
          <mxGeometry relative="1" as="geometry">
            <mxPoint x="457.5" y="920" as="targetPoint" />
            <Array as="points">
              <mxPoint x="547.5" y="920" />
            </Array>
          </mxGeometry>
        </mxCell>
        <mxCell id="8jYT87kQ_CPMX7Xzsf0v-62" value="[precioOptimo]" style="text;html=1;align=center;verticalAlign=middle;resizable=0;points=[];autosize=1;strokeColor=none;fillColor=none;" vertex="1" parent="1">
          <mxGeometry x="715" y="850" width="100" height="30" as="geometry" />
        </mxCell>
        <mxCell id="8jYT87kQ_CPMX7Xzsf0v-67" value="Opt" style="shape=umlFrame;whiteSpace=wrap;html=1;pointerEvents=0;" vertex="1" parent="1">
          <mxGeometry x="280" y="1010" width="560" height="100" as="geometry" />
        </mxCell>
      </root>
    </mxGraphModel>
  </diagram>
</mxfile>
